<?xml version="1.0" encoding="utf-8"?>
<!-- Generator: Adobe Illustrator 24.1.2, SVG Export Plug-In . SVG Version: 6.00 Build 0)  -->
<svg version="1.1" id="Слой_1" xmlns="http://www.w3.org/2000/svg" xmlns:xlink="http://www.w3.org/1999/xlink" x="0px" y="0px"
	 viewBox="0 0 612 792" style="enable-background:new 0 0 612 792;" xml:space="preserve">
<style type="text/css">
	.st0{fill:#FFFFFF;}
</style>
<g>
	<g>
		<path d="M50,411c0-10,0-20,0-30c0.31-1.76,0.68-3.52,0.91-5.29c1.22-9.24,1.93-18.56,3.67-27.7
			c9.69-50.99,32.9-95.04,69.38-131.88c38.25-38.62,84.22-62.94,137.91-72.19c9.65-1.66,19.41-2.65,29.12-3.94c10,0,20,0,30,0
			c6.75,0.81,13.53,1.49,20.26,2.44c50.48,7.13,95.11,27.29,133.31,61.03c45,39.74,73.14,89.18,83.5,148.48
			c1.68,9.62,2.64,19.36,3.94,29.05c0,10,0,20,0,30c-0.31,1.76-0.68,3.52-0.91,5.29c-1.22,9.24-1.93,18.56-3.67,27.7
			c-9.69,50.99-32.9,95.04-69.38,131.88c-38.25,38.62-84.22,62.94-137.91,72.19c-9.65,1.66-19.41,2.65-29.12,3.94c-10,0-20,0-30,0
			c-6.75-0.81-13.53-1.49-20.26-2.44c-50.48-7.13-95.11-27.29-133.31-61.03c-45-39.74-73.14-89.18-83.49-148.48
			C52.26,430.43,51.29,420.69,50,411z M136.3,247.04c-32.99,38.03-51.82,82.52-55.64,133.74c29.85,0,59.09,0,88.93,0
			c1.16-34.6,5.64-68.62,14.26-101.08C167.81,268.68,152.36,258.07,136.3,247.04z M531.38,380.83
			c-3.94-51.41-22.75-95.96-55.69-133.78c-16.04,11.02-31.59,21.7-47.57,32.67c8.8,32.64,13.05,66.66,14.36,101.1
			C472.37,380.83,501.47,380.83,531.38,380.83z M169.62,411.25c-29.95,0-59.2,0-88.98,0c3.92,51.34,22.72,95.93,55.69,133.68
			c16.12-11.06,31.57-21.67,47.53-32.62C175.26,479.88,170.74,446.02,169.62,411.25z M442.58,411.22c-0.19,2.47-0.37,4.75-0.53,7.04
			c-0.53,7.97-0.46,16.03-1.7,23.89c-3.6,22.8-7.64,45.54-11.77,68.25c-0.53,2.93,0.63,3.67,2.59,4.91
			c10.11,6.4,20.22,12.8,30.13,19.51c4.75,3.22,9.03,7.13,13.74,10.9c33.65-38.81,52.48-83.3,56.3-134.5
			C501.46,411.22,472.23,411.22,442.58,411.22z M290.81,306.91c-27.3-1.48-53.4-6.71-78.89-15.96
			c-7.47,29.87-11.41,59.44-12.2,89.72c30.56,0,60.76,0,91.09,0C290.81,356.08,290.81,331.81,290.81,306.91z M400.03,290.89
			c-25.66,9.53-51.85,14.43-78.73,16.11c0,24.85,0,49.24,0,73.74c30.38,0,60.46,0,90.98,0
			C411.48,350.32,407.57,320.64,400.03,290.89z M199.71,411.26c0.82,30.43,4.71,60.11,12.27,89.88
			c25.65-9.61,51.85-14.43,78.71-16.15c0-24.87,0-49.26,0-73.73C260.3,411.26,230.22,411.26,199.71,411.26z M411.85,411.35
			c-30.18,0-60.38,0-90.46,0c0,24.74,0,49.12,0,73.7c27.05,1.61,53.08,6.61,78.15,15.87C405.28,487.85,413.54,427.39,411.85,411.35z
			 M290.72,276.88c0-34.87,0-69.25,0-103.7c-30.8,7.94-59.77,55.21-69.37,89.07C243.56,270.83,266.61,275.39,290.72,276.88z
			 M321.26,276.62c17.7,0.51,60.93-8.97,70.11-15.54c-4.05-9.17-7.86-18.57-12.3-27.67c-8.38-17.18-18.79-32.98-33.16-45.85
			c-7.19-6.44-15.03-11.9-24.65-14.67C321.26,207.77,321.26,242.2,321.26,276.62z M321.26,618.81
			c30.56-7.78,59.56-54.67,69.36-88.89c-17.22-7.62-56.06-15.66-69.36-14.31C321.26,549.98,321.26,584.36,321.26,618.81z
			 M290.77,515.12c-24.41,1.64-47.57,6.15-70.43,15.12c4.31,9.77,8.11,19.17,12.54,28.27c8.37,17.17,18.77,32.99,33.12,45.86
			c7.19,6.45,15.04,11.91,24.77,14.78C290.77,584.29,290.77,549.89,290.77,515.12z M158.09,566.4
			c21.95,19.73,57.23,38.75,69.12,40.09c-14.9-19.43-25.11-41.1-34.2-64.5C181.04,550.36,169.81,558.2,158.09,566.4z M226.72,185.19
			c-25.32,8.96-47.74,22.28-68.58,40.34c11.85,8.33,23.05,16.21,34.89,24.54C202.11,226.42,212.45,204.81,226.72,185.19z
			 M385.27,185.19c14.28,19.62,24.62,41.23,33.71,64.89c11.92-8.41,23.2-16.36,34.9-24.62
			C432.81,207.45,410.52,194.05,385.27,185.19z M418.96,541.89c-9.06,23.78-19.48,45.31-33.75,64.95
			c25.27-8.82,47.61-22.28,68.66-40.3C442.18,558.28,430.99,550.38,418.96,541.89z"/>
		<path class="st0" d="M291,140c-9.71,1.3-19.47,2.28-29.12,3.94c-53.7,9.26-99.66,33.57-137.91,72.19
			c-36.48,36.83-59.69,80.89-69.38,131.88c-1.74,9.13-2.45,18.46-3.67,27.7c-0.23,1.77-0.6,3.53-0.91,5.29c0-80.33,0-160.67,0-241
			C130.33,140,210.67,140,291,140z"/>
		<path class="st0" d="M562,381c-1.29-9.69-2.26-19.43-3.94-29.05c-10.35-59.29-38.5-108.74-83.5-148.48
			c-38.2-33.74-82.83-53.9-133.31-61.03c-6.73-0.95-13.51-1.64-20.26-2.44c80.33,0,160.67,0,241,0C562,220.33,562,300.67,562,381z"
			/>
		<path class="st0" d="M50,411c1.29,9.69,2.26,19.43,3.94,29.05c10.35,59.29,38.5,108.74,83.49,148.48
			c38.2,33.74,82.83,53.9,133.31,61.03c6.73,0.95,13.51,1.64,20.26,2.44c-80.33,0-160.67,0-241,0C50,571.67,50,491.33,50,411z"/>
		<path class="st0" d="M321,652c9.71-1.3,19.47-2.28,29.12-3.94c53.7-9.26,99.66-33.57,137.91-72.19
			c36.48-36.83,59.69-80.89,69.38-131.88c1.74-9.13,2.45-18.46,3.67-27.7c0.23-1.77,0.6-3.53,0.91-5.29c0,80.33,0,160.67,0,241
			C481.67,652,401.33,652,321,652z"/>
		<path class="st0" d="M136.3,247.04c16.06,11.03,31.5,21.64,47.55,32.66c-8.62,32.46-13.1,66.48-14.26,101.08
			c-29.83,0-59.07,0-88.93,0C84.49,329.57,103.31,285.07,136.3,247.04z"/>
		<path class="st0" d="M531.38,380.83c-29.91,0-59.01,0-88.91,0c-1.31-34.44-5.55-68.47-14.36-101.1
			c15.98-10.97,31.53-21.66,47.57-32.67C508.63,284.88,527.43,329.43,531.38,380.83z"/>
		<path class="st0" d="M169.62,411.25c1.11,34.77,5.64,68.63,14.23,101.06c-15.96,10.95-31.41,21.56-47.53,32.62
			c-32.96-37.74-51.77-82.33-55.69-133.68C110.43,411.25,139.68,411.25,169.62,411.25z"/>
		<path class="st0" d="M442.58,411.22c29.65,0,58.89,0,88.76,0c-3.81,51.2-22.65,95.69-56.3,134.5c-4.71-3.77-8.99-7.68-13.74-10.9
			c-9.9-6.71-20.02-13.11-30.13-19.51c-1.96-1.24-3.13-1.98-2.59-4.91c4.14-22.71,8.17-45.45,11.77-68.25
			c1.24-7.86,1.16-15.92,1.7-23.89C442.2,415.97,442.39,413.69,442.58,411.22z"/>
		<path class="st0" d="M290.81,306.91c0,24.89,0,49.16,0,73.76c-30.33,0-60.53,0-91.09,0c0.79-30.28,4.73-59.85,12.2-89.72
			C237.4,300.2,263.51,305.43,290.81,306.91z"/>
		<path class="st0" d="M400.03,290.89c7.54,29.75,11.45,59.43,12.25,89.85c-30.52,0-60.6,0-90.98,0c0-24.5,0-48.89,0-73.74
			C348.19,305.32,374.37,300.42,400.03,290.89z"/>
		<path class="st0" d="M199.71,411.26c30.5,0,60.58,0,90.98,0c0,24.48,0,48.87,0,73.73c-26.85,1.71-53.05,6.53-78.71,16.15
			C204.42,471.37,200.53,441.69,199.71,411.26z"/>
		<path class="st0" d="M411.85,411.35c1.69,16.04-6.56,76.5-12.31,89.57c-25.07-9.26-51.1-14.26-78.15-15.87c0-24.58,0-48.96,0-73.7
			C351.47,411.35,381.67,411.35,411.85,411.35z"/>
		<path class="st0" d="M290.72,276.88c-24.11-1.48-47.16-6.05-69.37-14.63c9.6-33.86,38.57-81.13,69.37-89.07
			C290.72,207.63,290.72,242,290.72,276.88z"/>
		<path class="st0" d="M321.26,276.62c0-34.42,0-68.85,0-103.72c9.62,2.77,17.46,8.23,24.65,14.67
			c14.36,12.86,24.78,28.67,33.16,45.85c4.44,9.1,8.25,18.5,12.3,27.67C382.19,267.64,338.96,277.13,321.26,276.62z"/>
		<path class="st0" d="M321.26,618.81c0-34.45,0-68.83,0-103.2c13.3-1.35,52.14,6.69,69.36,14.31
			C380.82,564.14,351.82,611.03,321.26,618.81z"/>
		<path class="st0" d="M290.77,515.12c0,34.77,0,69.18,0,104.03c-9.73-2.87-17.58-8.33-24.77-14.78
			c-14.35-12.87-24.75-28.69-33.12-45.86c-4.43-9.09-8.23-18.49-12.54-28.27C243.2,521.27,266.36,516.76,290.77,515.12z"/>
		<path class="st0" d="M158.09,566.4c11.72-8.2,22.94-16.04,34.92-24.41c9.09,23.4,19.3,45.07,34.2,64.5
			C215.32,605.15,180.04,586.13,158.09,566.4z"/>
		<path class="st0" d="M226.72,185.19c-14.27,19.62-24.61,41.23-33.69,64.88c-11.84-8.33-23.04-16.21-34.89-24.54
			C178.98,207.46,201.4,194.15,226.72,185.19z"/>
		<path class="st0" d="M385.27,185.19c25.25,8.86,47.54,22.26,68.61,40.27c-11.7,8.25-22.98,16.21-34.9,24.62
			C409.89,226.42,399.55,204.8,385.27,185.19z"/>
		<path class="st0" d="M418.96,541.89c12.03,8.49,23.21,16.39,34.91,24.65c-21.05,18.03-43.39,31.49-68.66,40.3
			C399.48,587.19,409.91,565.67,418.96,541.89z"/>
	</g>
</g>
</svg>
