<svg width="840" height="300" viewBox="0 0 840 300" fill="none" xmlns="http://www.w3.org/2000/svg">
<path d="M360.685 286.277V99.2541L406.873 90.2373V295.688L360.685 286.277ZM481.434 173.799C481.434 117.973 514.423 101.369 565.197 89.7761L591.813 85.4648V133.682L565.197 138.569C542.328 142.92 527.622 154.709 527.622 180.797V295.689L481.434 286.277V173.799ZM286.123 167.084V295.687L239.938 286.276V167.084C239.938 146.695 225.063 132.19 203.145 132.19C181.224 132.19 166.352 146.695 166.352 167.084V295.687L120.164 286.276V167.084C120.164 146.695 105.29 132.19 83.3716 132.19C61.0598 132.19 46.1878 146.695 46.1878 167.084V295.687L0 286.276V99.2535L46.1878 90.2368V111.409C59.102 95.7257 78.6741 85.9229 100.983 85.9229C119.11 85.9229 141.337 95.9669 153.87 113.969C166.451 97.5778 187.478 86.8204 213.286 86.4729C245.77 86.0319 286.123 106.312 286.123 167.084ZM736.65 300C672.498 300 629.596 257.028 629.596 192.764C629.596 128.502 672.498 85.9242 736.65 85.9242C798.44 85.9242 839.371 128.502 839.371 192.764C839.371 257.028 798.44 300 736.65 300ZM736.65 256.633C770.102 256.633 792.144 231.007 792.144 192.764C792.144 154.523 770.102 129.291 736.65 129.291C700.833 129.291 676.825 154.523 676.825 192.764C676.825 231.007 700.833 256.633 736.65 256.633ZM384.759 58.2251C367.31 58.2251 355.644 46.5365 355.644 29.0581C355.644 11.5823 367.31 0 384.759 0C401.565 0 412.698 11.5823 412.698 29.0581C412.698 46.5365 401.565 58.2251 384.759 58.2251Z" fill="black"/>
</svg>
